HIERARCHY
ROOT newVegas:Hips
{
	OFFSET 0.000000 96.479958 0.000000
	CHANNELS 6 Xposition Yposition Zposition Xrotation Yrotation Zrotation
	JOINT newVegas:Pelvis
	{
		OFFSET 0.000000 0.000000 0.000000
		CHANNELS 3 Xrotation Yrotation Zrotation
		JOINT newVegas:LeftUpLeg
		{
			OFFSET 18.735201 -5.666702 -4.541200
			CHANNELS 3 Xrotation Yrotation Zrotation
			JOINT newVegas:LeftLeg
			{
				OFFSET -0.021200 -31.938179 0.493100
				CHANNELS 3 Xrotation Yrotation Zrotation
				JOINT newVegas:LeftFoot
				{
					OFFSET 0.021200 -31.938179 -4.336299
					CHANNELS 3 Xrotation Yrotation Zrotation
					JOINT newVegas:LeftToeBase
					{
						OFFSET 0.943001 -26.722000 15.023500
						CHANNELS 3 Xrotation Yrotation Zrotation
						End Site
						{
							OFFSET 0.000000 30.670183 0.000000
						}
					}
				}
				JOINT newVegas:Left_PantLeg
				{
					OFFSET 0.663870 -9.044666 -1.108900
					CHANNELS 3 Xrotation Yrotation Zrotation
					End Site
					{
						OFFSET 1.415995 20.635357 0.000000
					}
				}
			}
		}
		JOINT newVegas:RightUpLeg
		{
			OFFSET -18.735201 -5.666702 -4.541200
			CHANNELS 3 Xrotation Yrotation Zrotation
			JOINT newVegas:RightLeg
			{
				OFFSET 0.018946 -31.938133 0.493100
				CHANNELS 3 Xrotation Yrotation Zrotation
				JOINT newVegas:RightFoot
				{
					OFFSET -0.018946 -31.938126 -4.336299
					CHANNELS 3 Xrotation Yrotation Zrotation
					JOINT newVegas:RightToeBase
					{
						OFFSET -0.943001 -26.722004 15.023500
						CHANNELS 3 Xrotation Yrotation Zrotation
						End Site
						{
							OFFSET 0.000000 30.670187 0.000000
						}
					}
				}
				JOINT newVegas:Right_PantLeg
				{
					OFFSET -0.661674 -9.044716 -1.108900
					CHANNELS 3 Xrotation Yrotation Zrotation
					End Site
					{
						OFFSET -1.415958 20.635269 0.000000
					}
				}
			}
		}
	}
	JOINT newVegas:Spine
	{
		OFFSET 0.000000 10.199997 -0.299500
		CHANNELS 3 Xrotation Yrotation Zrotation
		JOINT newVegas:Spine1
		{
			OFFSET 0.000000 11.900002 -1.516600
			CHANNELS 3 Xrotation Yrotation Zrotation
			JOINT newVegas:Spine2
			{
				OFFSET 0.000000 13.600006 -2.842500
				CHANNELS 3 Xrotation Yrotation Zrotation
				JOINT newVegas:Neck
				{
					OFFSET 0.000000 9.624100 -2.890100
					CHANNELS 3 Xrotation Yrotation Zrotation
					JOINT newVegas:Head
					{
						OFFSET 0.000000 14.068802 -1.351900
						CHANNELS 3 Xrotation Yrotation Zrotation
						JOINT newVegas:Hair_Back
						{
							OFFSET 0.000000 3.231903 -17.524799
							CHANNELS 3 Xrotation Yrotation Zrotation
							End Site
							{
								OFFSET 0.000000 19.849884 0.000000
							}
						}
						JOINT newVegas:Hair_Front
						{
							OFFSET 0.000000 31.260406 4.573800
							CHANNELS 3 Xrotation Yrotation Zrotation
							JOINT newVegas:Hair_Front1
							{
								OFFSET 0.000000 2.284103 11.993300
								CHANNELS 3 Xrotation Yrotation Zrotation
								JOINT newVegas:Hair_Front2
								{
									OFFSET 0.000000 2.284103 11.993300
									CHANNELS 3 Xrotation Yrotation Zrotation
									End Site
									{
										OFFSET 0.000000 12.208862 0.000000
									}
								}
							}
						}
						JOINT newVegas:Jowel
						{
							OFFSET 0.000000 -7.458206 6.864100
							CHANNELS 3 Xrotation Yrotation Zrotation
							End Site
							{
								OFFSET 0.000000 19.849884 0.000000
							}
						}
					}
				}
				JOINT newVegas:LeftShoulder
				{
					OFFSET 15.263000 10.923401 -0.547700
					CHANNELS 3 Xrotation Yrotation Zrotation
					JOINT newVegas:LeftArm
					{
						OFFSET 25.438599 -2.830597 -13.032500
						CHANNELS 3 Xrotation Yrotation Zrotation
						JOINT newVegas:LeftForeArm
						{
							OFFSET 29.960503 0.000000 0.000000
							CHANNELS 3 Xrotation Yrotation Zrotation
							JOINT newVegas:LeftHand
							{
								OFFSET 27.849251 0.000000 0.000000
								CHANNELS 3 Xrotation Yrotation Zrotation
								JOINT newVegas:LeftHandThumb1
								{
									OFFSET 4.487587 -3.305161 6.305391
									CHANNELS 3 Xrotation Yrotation Zrotation
									JOINT newVegas:LeftHandThumb2
									{
										OFFSET 5.480453 -3.164139 3.164143
										CHANNELS 3 Xrotation Yrotation Zrotation
										JOINT newVegas:LeftHandThumb3
										{
											OFFSET 5.159721 -2.978973 2.978967
											CHANNELS 3 Xrotation Yrotation Zrotation
											End Site
											{
												OFFSET 2.494507 5.926697 1.738678
											}
										}
									}
								}
								JOINT newVegas:LeftHandIndex1
								{
									OFFSET 18.578728 -0.527832 5.208049
									CHANNELS 3 Xrotation Yrotation Zrotation
									JOINT newVegas:LeftHandIndex2
									{
										OFFSET 3.192009 0.000000 0.000000
										CHANNELS 3 Xrotation Yrotation Zrotation
										JOINT newVegas:LeftHandIndex3
										{
											OFFSET 3.835129 0.000000 0.000000
											CHANNELS 3 Xrotation Yrotation Zrotation
											End Site
											{
												OFFSET -0.034599 3.816971 0.371180
											}
										}
									}
								}
								JOINT newVegas:LeftHandMiddle1
								{
									OFFSET 18.476105 0.000000 0.000000
									CHANNELS 3 Xrotation Yrotation Zrotation
									JOINT newVegas:LeftHandMiddle2
									{
										OFFSET 3.324875 0.000000 0.000000
										CHANNELS 3 Xrotation Yrotation Zrotation
										JOINT newVegas:LeftHandMiddle3
										{
											OFFSET 4.596550 0.000000 0.000000
											CHANNELS 3 Xrotation Yrotation Zrotation
											End Site
											{
												OFFSET 0.057701 4.578827 0.399218
											}
										}
									}
								}
								JOINT newVegas:LeftHandRing1
								{
									OFFSET 17.732719 0.121887 -4.201567
									CHANNELS 3 Xrotation Yrotation Zrotation
									JOINT newVegas:LeftHandRing2
									{
										OFFSET 2.733170 0.000000 0.000000
										CHANNELS 3 Xrotation Yrotation Zrotation
										JOINT newVegas:LeftHandRing3
										{
											OFFSET 3.178268 0.000000 0.000000
											CHANNELS 3 Xrotation Yrotation Zrotation
											End Site
											{
												OFFSET 0.119102 3.170624 0.185394
											}
										}
									}
								}
								JOINT newVegas:LeftHandPinky1
								{
									OFFSET 15.989624 -0.606689 -7.535461
									CHANNELS 3 Xrotation Yrotation Zrotation
									JOINT newVegas:LeftHandPinky2
									{
										OFFSET 2.538986 0.000000 0.000000
										CHANNELS 3 Xrotation Yrotation Zrotation
										JOINT newVegas:LeftHandPinky3
										{
											OFFSET 2.593102 0.000000 0.000000
											CHANNELS 3 Xrotation Yrotation Zrotation
											End Site
											{
												OFFSET -0.150902 2.584198 0.152708
											}
										}
									}
								}
							}
							JOINT newVegas:Left_Sleeve
							{
								OFFSET 0.267448 -0.649796 0.577675
								CHANNELS 3 Xrotation Yrotation Zrotation
								End Site
								{
									OFFSET 0.000000 15.991241 0.000000
								}
							}
							JOINT newVegas:Left_CapeC
							{
								OFFSET 15.715958 -8.608795 -6.935905
								CHANNELS 3 Xrotation Yrotation Zrotation
								JOINT newVegas:Left_CapeC1
								{
									OFFSET 0.000000 -8.688499 0.000000
									CHANNELS 3 Xrotation Yrotation Zrotation
									End Site
									{
										OFFSET 0.000000 8.688499 0.000000
									}
								}
							}
						}
						JOINT newVegas:Left_CapeB
						{
							OFFSET 26.118385 -8.608795 -7.079235
							CHANNELS 3 Xrotation Yrotation Zrotation
							JOINT newVegas:Left_CapeB1
							{
								OFFSET 0.000000 -8.688499 0.000000
								CHANNELS 3 Xrotation Yrotation Zrotation
								End Site
								{
									OFFSET 0.000000 8.688499 0.000000
								}
							}
						}
						JOINT newVegas:Left_CapeA
						{
							OFFSET 5.115639 -8.608795 -10.395809
							CHANNELS 3 Xrotation Yrotation Zrotation
							JOINT newVegas:Left_CapeA1
							{
								OFFSET 0.000000 -8.688499 0.000000
								CHANNELS 3 Xrotation Yrotation Zrotation
								End Site
								{
									OFFSET 0.000000 8.688499 0.000000
								}
							}
						}
					}
				}
				JOINT newVegas:RightShoulder
				{
					OFFSET -15.263000 10.923401 -0.547700
					CHANNELS 3 Xrotation Yrotation Zrotation
					JOINT newVegas:RightArm
					{
						OFFSET -25.438599 -2.830597 -13.032500
						CHANNELS 3 Xrotation Yrotation Zrotation
						JOINT newVegas:RightForeArm
						{
							OFFSET -29.960503 0.000000 0.000000
							CHANNELS 3 Xrotation Yrotation Zrotation
							JOINT newVegas:RightHand
							{
								OFFSET -27.849251 0.000000 0.000000
								CHANNELS 3 Xrotation Yrotation Zrotation
								JOINT newVegas:RightHandThumb1
								{
									OFFSET -4.487587 -3.305161 6.305391
									CHANNELS 3 Xrotation Yrotation Zrotation
									JOINT newVegas:RightHandThumb2
									{
										OFFSET -5.480453 -3.164139 3.164143
										CHANNELS 3 Xrotation Yrotation Zrotation
										JOINT newVegas:RightHandThumb3
										{
											OFFSET -5.159721 -2.978973 2.978967
											CHANNELS 3 Xrotation Yrotation Zrotation
											End Site
											{
												OFFSET -2.494507 5.926697 1.738678
											}
										}
									}
								}
								JOINT newVegas:RightHandIndex1
								{
									OFFSET -18.578728 -0.527832 5.208049
									CHANNELS 3 Xrotation Yrotation Zrotation
									JOINT newVegas:RightHandIndex2
									{
										OFFSET -3.192009 0.000000 0.000000
										CHANNELS 3 Xrotation Yrotation Zrotation
										JOINT newVegas:RightHandIndex3
										{
											OFFSET -3.835129 0.000000 0.000000
											CHANNELS 3 Xrotation Yrotation Zrotation
											End Site
											{
												OFFSET 0.034599 3.816971 0.371180
											}
										}
									}
								}
								JOINT newVegas:RightHandMiddle1
								{
									OFFSET -18.476105 0.000000 0.000000
									CHANNELS 3 Xrotation Yrotation Zrotation
									JOINT newVegas:RightHandMiddle2
									{
										OFFSET -3.324875 0.000000 0.000000
										CHANNELS 3 Xrotation Yrotation Zrotation
										JOINT newVegas:RightHandMiddle3
										{
											OFFSET -4.596550 0.000000 0.000000
											CHANNELS 3 Xrotation Yrotation Zrotation
											End Site
											{
												OFFSET -0.057701 4.578827 0.399218
											}
										}
									}
								}
								JOINT newVegas:RightHandRing1
								{
									OFFSET -17.732719 0.121887 -4.201567
									CHANNELS 3 Xrotation Yrotation Zrotation
									JOINT newVegas:RightHandRing2
									{
										OFFSET -2.733170 0.000000 0.000000
										CHANNELS 3 Xrotation Yrotation Zrotation
										JOINT newVegas:RightHandRing3
										{
											OFFSET -3.178268 0.000000 0.000000
											CHANNELS 3 Xrotation Yrotation Zrotation
											End Site
											{
												OFFSET -0.119102 3.170624 0.185394
											}
										}
									}
								}
								JOINT newVegas:RightHandPinky1
								{
									OFFSET -15.989624 -0.606689 -7.535461
									CHANNELS 3 Xrotation Yrotation Zrotation
									JOINT newVegas:RightHandPinky2
									{
										OFFSET -2.538986 0.000000 0.000000
										CHANNELS 3 Xrotation Yrotation Zrotation
										JOINT newVegas:RightHandPinky3
										{
											OFFSET -2.593102 0.000000 0.000000
											CHANNELS 3 Xrotation Yrotation Zrotation
											End Site
											{
												OFFSET 0.150902 2.584198 0.152708
											}
										}
									}
								}
							}
							JOINT newVegas:Right_CapeC
							{
								OFFSET -15.715958 -8.608795 -6.935905
								CHANNELS 3 Xrotation Yrotation Zrotation
								JOINT newVegas:Right_CapeC1
								{
									OFFSET 0.000000 -8.688499 0.000000
									CHANNELS 3 Xrotation Yrotation Zrotation
									End Site
									{
										OFFSET 0.000000 8.688499 0.000000
									}
								}
							}
							JOINT newVegas:Right_Sleeve
							{
								OFFSET -0.267448 -0.649994 0.577675
								CHANNELS 3 Xrotation Yrotation Zrotation
								End Site
								{
									OFFSET 0.000000 15.991302 0.000000
								}
							}
						}
						JOINT newVegas:Right_CapeA
						{
							OFFSET -5.115540 -8.608795 -10.395824
							CHANNELS 3 Xrotation Yrotation Zrotation
							JOINT newVegas:Right_CapeA1
							{
								OFFSET 0.000000 -8.688499 0.000000
								CHANNELS 3 Xrotation Yrotation Zrotation
								End Site
								{
									OFFSET 0.000000 8.688499 0.000000
								}
							}
						}
						JOINT newVegas:Right_CapeB
						{
							OFFSET -26.118187 -8.608795 -7.079266
							CHANNELS 3 Xrotation Yrotation Zrotation
							JOINT newVegas:Right_CapeB1
							{
								OFFSET 0.000000 -8.688499 0.000000
								CHANNELS 3 Xrotation Yrotation Zrotation
								End Site
								{
									OFFSET 0.000000 8.688499 0.000000
								}
							}
						}
					}
				}
				JOINT newVegas:Left_Collar
				{
					OFFSET 18.625099 8.655502 8.828100
					CHANNELS 3 Xrotation Yrotation Zrotation
					JOINT newVegas:Left_Collar1
					{
						OFFSET 14.783401 10.540405 -1.259500
						CHANNELS 3 Xrotation Yrotation Zrotation
						End Site
						{
							OFFSET 0.000000 18.199875 0.000000
						}
					}
				}
				JOINT newVegas:Collar_Back
				{
					OFFSET 0.000000 15.630707 -20.132601
					CHANNELS 3 Xrotation Yrotation Zrotation
					End Site
					{
						OFFSET 0.000000 22.523010 0.000000
					}
				}
				JOINT newVegas:Left_Peck
				{
					OFFSET 17.239599 -5.132599 25.482599
					CHANNELS 3 Xrotation Yrotation Zrotation
					End Site
					{
						OFFSET 0.000000 22.523010 0.000000
					}
				}
				JOINT newVegas:Right_Peck
				{
					OFFSET -17.239599 -5.132202 25.482599
					CHANNELS 3 Xrotation Yrotation Zrotation
					End Site
					{
						OFFSET 0.000000 22.523010 0.000000
					}
				}
				JOINT newVegas:Right_Collar
				{
					OFFSET -18.625099 8.655792 8.828100
					CHANNELS 3 Xrotation Yrotation Zrotation
					JOINT newVegas:Right_Collar1
					{
						OFFSET -14.783401 10.539993 -1.259500
						CHANNELS 3 Xrotation Yrotation Zrotation
						End Site
						{
							OFFSET 0.000000 18.199631 0.000000
						}
					}
				}
			}
		}
		JOINT newVegas:Belly
		{
			OFFSET 0.000000 -6.540398 9.014299
			CHANNELS 3 Xrotation Yrotation Zrotation
			End Site
			{
				OFFSET 0.000000 11.566666 0.000000
			}
		}
	}
	JOINT newVegas:ElvisFacialAnim_Joint
	{
		OFFSET 1.000000 -95.330101 -8.825800
		CHANNELS 3 Xrotation Yrotation Zrotation
		End Site
		{
			OFFSET 0.000000 35.315800 0.000000
		}
	}
}
MOTION
Frames: 4
Frame Time: 0.016667
-1.128359 16.245506 6.596779 -86.970745 -3.313612 2.114008 -0.000000 -0.000000 -0.000000 -31.566464 17.892915 -7.673756 33.472452 -6.718356 -11.283880 -0.924131 8.929356 10.563843 0.000001 -0.000000 0.000001 -0.000000 -0.000000 0.000000 -6.385778 -10.017892 -5.473472 -1.212527 -10.579790 4.760614 19.495522 -3.093457 28.810650 0.000002 0.000000 -0.000001 -0.000000 0.000002 -0.000000 0.148158 1.766897 -4.546839 -2.894329 0.722158 -0.032030 -2.892152 0.750137 -0.008814 1.997623 0.181520 0.051849 1.997625 0.181519 0.051849 -0.000000 -0.000000 0.000000 1.997653 0.181518 0.051849 1.997607 0.181521 0.051849 0.000000 0.000000 0.000000 -0.000000 -0.000000 0.000000 1.575206 -15.462655 -0.386116 21.370844 -1.052523 -73.139127 0.000031 -137.558453 0.000039 -17.216077 17.260906 -40.864902 -7.747753 -16.408824 12.046773 7.558154 31.509544 -3.040781 0.000001 -0.000002 -0.000003 0.259311 3.223721 10.217937 0.789881 2.939698 -30.073699 -0.000001 -0.000000 0.000000 -0.267151 2.447532 18.123132 0.825494 3.000273 -30.761085 0.000001 -0.000000 -0.000001 -0.192986 1.876670 21.842781 0.923694 3.159206 -32.588718 -0.000000 -0.000004 -0.000000 -3.484227 5.349098 23.881625 0.640531 2.665489 -27.019993 0.000000 0.000000 -0.000001 0.000001 -0.000000 -0.000001 0.000001 -0.000000 -0.000001 0.000000 0.000000 -0.000002 0.000001 0.000001 0.000002 0.000001 0.000002 0.000001 0.000001 0.000001 0.000002 0.000001 0.000001 0.000002 0.537285 6.692241 0.071573 17.297874 6.543546 66.743700 0.000024 132.968046 -0.000009 -16.839258 -11.628798 48.900695 -19.372326 9.812722 -17.628167 16.805754 -33.149121 6.482048 0.000000 -0.000001 0.000001 -0.578705 -1.290236 19.415306 0.000000 0.000001 0.000001 -0.000001 -0.000000 0.000000 0.900204 -7.884222 9.062698 0.294486 -1.631361 20.463677 -0.000001 0.000001 -0.000001 0.740078 -10.091153 4.911398 1.354394 -3.285239 44.799972 -0.000001 0.000002 0.000001 0.507053 -5.672362 8.465990 1.111091 -3.020956 40.379061 0.000000 0.000002 -0.000002 0.000003 -0.000001 -0.000000 0.000002 -0.000001 0.000000 0.000003 -0.000001 -0.000000 -0.000001 0.000000 -0.000002 -0.000000 0.000000 -0.000001 -0.000001 0.000000 -0.000002 -0.000000 -0.000000 -0.000002 -0.000000 0.000000 -0.000000 -0.000000 0.000000 -0.000000 -0.000000 0.000000 -0.000000 -0.000000 0.000000 -0.000000 -0.000000 0.000000 -0.000000 -0.000000 0.000000 -0.000000 -0.000000 0.000000 -0.000000 0.000000 -0.000000 -0.000000 -0.000000 -0.000000 -0.000000 
-1.129017 16.246109 6.603622 -86.976681 -3.314995 2.113585 -0.000000 -0.000000 0.000000 -31.578949 17.895038 -7.666705 33.507641 -6.718611 -11.286802 -0.938981 8.906848 10.567690 0.000000 0.000000 0.000000 0.000000 0.000000 -0.000000 -6.371040 -10.017394 -5.472803 -1.211088 -10.581578 4.760737 19.448714 -3.090524 28.829378 0.000000 0.000003 -0.000002 -0.000000 0.000002 -0.000001 0.152119 1.757265 -4.539403 -2.899782 0.719093 -0.031225 -2.897572 0.747077 -0.008095 2.002529 0.174997 0.055675 2.002509 0.174997 0.055675 -0.000000 -0.000000 0.000000 2.002532 0.174997 0.055675 2.002497 0.174995 0.055675 0.000000 -0.000000 0.000000 -0.000000 -0.000000 0.000000 1.572098 -15.451421 -0.406931 21.322449 -0.990329 -73.108371 0.000032 -137.648912 0.000040 -16.964901 17.158764 -40.725034 -7.677271 -16.481610 12.448413 7.558158 31.509551 -3.040780 0.000001 -0.000000 -0.000001 0.216528 3.322623 9.268475 0.755090 2.878855 -29.388207 0.000000 -0.000000 0.000000 -0.267946 2.540374 17.341931 0.825491 3.000276 -30.761082 0.000000 -0.000000 0.000000 -0.202645 1.974550 21.008586 0.883422 3.095397 -31.850507 0.000001 -0.000001 0.000000 -3.543187 5.418521 23.634321 0.608906 2.602618 -26.331950 0.000001 0.000004 -0.000001 -0.000000 0.000001 0.000001 -0.000000 0.000001 0.000001 -0.000001 0.000002 0.000001 -0.000001 0.000001 0.000002 -0.000001 0.000000 0.000002 -0.000001 0.000001 0.000002 -0.000001 -0.000000 0.000002 0.542307 6.731885 0.071286 17.280947 6.510337 66.772810 -0.000010 132.980341 0.000030 -16.827510 -11.646446 48.903007 -19.372332 9.812720 -17.628162 16.805754 -33.149121 6.482054 0.000001 -0.000003 0.000001 -0.578708 -1.290237 19.415306 0.000000 0.000001 0.000001 -0.000002 0.000001 -0.000000 0.900203 -7.884224 9.062699 0.294485 -1.631360 20.463677 -0.000001 0.000001 0.000001 0.740074 -10.091155 4.911397 1.354393 -3.285241 44.799976 -0.000000 0.000001 0.000000 0.507049 -5.672365 8.465991 1.111095 -3.020960 40.379061 0.000001 0.000002 -0.000000 0.000003 0.000002 -0.000002 0.000001 0.000003 -0.000003 0.000003 0.000001 -0.000002 0.000002 0.000000 -0.000002 0.000002 0.000001 -0.000002 0.000002 0.000000 -0.000002 0.000002 0.000001 -0.000002 -0.000000 -0.000000 -0.000000 -0.000000 -0.000000 -0.000000 -0.000000 -0.000000 -0.000000 -0.000000 -0.000000 -0.000000 -0.000000 -0.000000 -0.000000 -0.000000 -0.000000 -0.000000 -0.000000 -0.000000 -0.000000 -0.000000 -0.000000 -0.000000 -0.000000 -0.000000 0.000000 
-1.129030 16.246704 6.610786 -86.982691 -3.314913 2.112966 0.000000 -0.000000 -0.000000 -31.591223 17.897348 -7.660222 33.543008 -6.718415 -11.289921 -0.953737 8.883239 10.572241 0.000000 0.000000 0.000002 -0.000000 -0.000000 -0.000000 -6.354513 -10.017295 -5.472628 -1.211516 -10.584865 4.761286 19.401644 -3.087455 28.849240 0.000001 -0.000001 -0.000002 0.000000 0.000001 0.000000 0.158692 1.747797 -4.530666 -2.905655 0.716117 -0.029207 -2.903440 0.744094 -0.006158 2.007314 0.168776 0.059844 2.007359 0.168776 0.059844 0.000000 -0.000000 0.000000 2.007337 0.168776 0.059845 2.007338 0.168776 0.059844 -0.000000 -0.000000 0.000000 0.000000 -0.000000 0.000000 1.568766 -15.437781 -0.427669 21.271668 -0.938637 -73.079992 0.000042 -137.717733 0.000028 -16.836749 17.157150 -40.835672 -7.606062 -16.554681 12.852135 7.558157 31.509548 -3.040777 0.000002 -0.000003 -0.000005 0.175403 3.423360 8.317337 0.720863 2.817307 -28.699471 0.000000 -0.000001 -0.000000 -0.267363 2.633423 16.559266 0.825495 3.000273 -30.761082 0.000001 -0.000000 -0.000000 -0.210767 2.072769 20.172875 0.843784 3.030762 -31.108793 -0.000000 -0.000004 0.000000 -3.600518 5.485848 23.389129 0.577897 2.539062 -25.640626 -0.000000 0.000000 -0.000000 -0.000000 0.000001 -0.000001 -0.000000 0.000001 -0.000001 -0.000001 0.000002 -0.000002 0.000001 -0.000001 0.000001 0.000002 -0.000001 0.000000 0.000001 -0.000001 0.000001 0.000002 -0.000002 0.000001 0.546417 6.771665 0.070983 17.268892 6.484046 66.804243 0.000041 132.996023 -0.000032 -16.820429 -11.675026 48.886065 -19.372327 9.812721 -17.628162 16.805749 -33.149118 6.482050 0.000001 -0.000002 -0.000001 -0.578705 -1.290237 19.415303 0.000002 0.000002 -0.000000 -0.000001 0.000001 -0.000001 0.900203 -7.884223 9.062697 0.294487 -1.631361 20.463679 0.000000 -0.000001 -0.000000 0.740077 -10.091155 4.911395 1.354390 -3.285236 44.799976 -0.000000 0.000002 0.000001 0.507048 -5.672360 8.465990 1.111095 -3.020955 40.379061 -0.000001 0.000002 0.000001 0.000001 0.000003 0.000002 -0.000001 0.000002 0.000000 0.000001 0.000002 0.000001 -0.000001 0.000000 -0.000000 -0.000000 0.000000 0.000000 -0.000001 0.000000 -0.000000 -0.000000 -0.000001 0.000000 -0.000000 0.000000 -0.000000 -0.000000 0.000000 -0.000000 -0.000000 0.000000 -0.000000 -0.000000 0.000000 -0.000000 -0.000000 0.000000 -0.000000 -0.000000 0.000000 -0.000000 -0.000000 0.000000 -0.000000 0.000000 0.000000 -0.000000 0.000000 -0.000000 -0.000000 
-1.128440 16.247169 6.618134 -86.988456 -3.313273 2.112272 0.000000 -0.000000 0.000000 -31.603576 17.899960 -7.654334 33.577879 -6.717806 -11.293343 -0.967463 8.858589 10.577809 -0.000000 -0.000001 -0.000000 0.000000 0.000000 -0.000002 -6.338854 -10.017402 -5.473315 -1.210077 -10.588224 4.762244 19.352634 -3.085248 28.870701 0.000001 0.000002 -0.000004 -0.000001 -0.000000 -0.000000 0.166814 1.739502 -4.522321 -2.910619 0.713544 -0.026432 -2.908354 0.741506 -0.003457 2.011483 0.162603 0.064468 2.011461 0.162603 0.064467 0.000000 0.000000 0.000000 2.011502 0.162602 0.064469 2.011485 0.162604 0.064469 0.000000 -0.000000 0.000000 0.000000 0.000000 0.000000 1.565692 -15.422390 -0.445049 21.221008 -0.901431 -73.058285 0.000015 -137.753632 0.000021 -16.852080 17.263875 -41.211329 -7.535806 -16.626284 13.248364 7.558158 31.509548 -3.040783 0.000002 -0.000002 -0.000003 0.136838 3.523657 7.385370 0.688007 2.756514 -28.023754 0.000000 -0.000001 0.000000 -0.265440 2.724620 15.792261 0.825496 3.000272 -30.761082 0.000000 -0.000000 0.000001 -0.217209 2.169172 19.353896 0.805716 2.966848 -30.381112 0.000000 -0.000001 0.000000 -3.655679 5.551046 23.150120 0.548222 2.476351 -24.962386 0.000001 -0.000002 0.000000 0.000000 -0.000002 -0.000001 0.000000 -0.000002 -0.000001 -0.000000 -0.000001 -0.000002 0.000000 0.000000 -0.000000 0.000001 0.000000 -0.000001 0.000000 0.000000 -0.000000 0.000000 -0.000001 0.000000 0.549136 6.804088 0.070729 17.259770 6.469271 66.833094 0.000062 133.013235 -0.000064 -16.816564 -11.710422 48.858829 -19.372331 9.812722 -17.628160 16.805750 -33.149124 6.482051 0.000001 -0.000003 -0.000003 -0.578706 -1.290236 19.415304 0.000002 0.000000 -0.000000 -0.000003 0.000001 -0.000000 0.900202 -7.884223 9.062697 0.294484 -1.631359 20.463674 -0.000002 -0.000001 0.000002 0.740076 -10.091155 4.911399 1.354390 -3.285237 44.799969 -0.000000 -0.000001 0.000003 0.507052 -5.672363 8.465991 1.111094 -3.020961 40.379057 -0.000000 0.000001 0.000001 -0.000000 0.000003 -0.000000 0.000002 0.000000 -0.000001 -0.000000 0.000003 -0.000000 -0.000000 0.000001 0.000000 0.000000 0.000002 0.000001 -0.000000 0.000001 0.000000 0.000001 0.000002 0.000001 -0.000000 0.000000 -0.000000 -0.000000 0.000000 -0.000000 -0.000000 0.000000 -0.000000 -0.000000 0.000000 -0.000000 -0.000000 0.000000 -0.000000 -0.000000 0.000000 -0.000000 -0.000000 0.000000 -0.000000 -0.000000 0.000000 0.000000 0.000000 -0.000000 0.000000 
